<?xml version="1.0" encoding="UTF-8" standalone="no"?>
<!-- Generator: Adobe Illustrator 14.0.0, SVG Export Plug-In . SVG Version: 6.00 Build 43363)  -->

<svg
   xmlns:dc="http://purl.org/dc/elements/1.1/"
   xmlns:cc="http://creativecommons.org/ns#"
   xmlns:rdf="http://www.w3.org/1999/02/22-rdf-syntax-ns#"
   xmlns:svg="http://www.w3.org/2000/svg"
   xmlns="http://www.w3.org/2000/svg"
   xmlns:sodipodi="http://sodipodi.sourceforge.net/DTD/sodipodi-0.dtd"
   xmlns:inkscape="http://www.inkscape.org/namespaces/inkscape"
   version="1.1"
   id="Layer_1"
   x="0px"
   y="0px"
   width="16.07077"
   height="13.377515"
   viewBox="0 0 16.07077 13.377515"
   xml:space="preserve"
   inkscape:version="0.48.3.1 r9886"
   sodipodi:docname="mail3.png"
   inkscape:export-filename="/home/morales/work/treinamento/palestras/cssm2/images/mail3.png"
   inkscape:export-xdpi="134.41"
   inkscape:export-ydpi="134.41"><metadata
   id="metadata3160"><rdf:RDF><cc:Work
       rdf:about=""><dc:format>image/svg+xml</dc:format><dc:type
         rdf:resource="http://purl.org/dc/dcmitype/StillImage" /><dc:title></dc:title></cc:Work></rdf:RDF></metadata><defs
   id="defs3158" /><sodipodi:namedview
   pagecolor="#ffffff"
   bordercolor="#666666"
   borderopacity="1"
   objecttolerance="10"
   gridtolerance="10"
   guidetolerance="10"
   inkscape:pageopacity="0"
   inkscape:pageshadow="2"
   inkscape:window-width="1918"
   inkscape:window-height="1054"
   id="namedview3156"
   showgrid="false"
   inkscape:zoom="39.5625"
   inkscape:cx="5.2328787"
   inkscape:cy="7.1415383"
   inkscape:window-x="0"
   inkscape:window-y="24"
   inkscape:window-maximized="0"
   inkscape:current-layer="Layer_1"
   fit-margin-top="0"
   fit-margin-left="0"
   fit-margin-right="0"
   fit-margin-bottom="0" />
<path
   style="fill:#00aced;fill-opacity:1;stroke:#00aced;stroke-width:0.02731165;stroke-opacity:1"
   d="M 0.69556323,13.271616 C 0.33598239,13.098712 0.11726679,12.76736 0.06394085,12.314713 0.05029652,12.198895 0.04330743,10.439301 0.04714976,8.0873409 L 0.05373178,4.058367 C 3.2146191,5.7054689 5.6345709,7.0110698 8.0537318,8.2415749 11.053722,6.6584935 12.658202,5.7953971 16.006482,4.0746475 c 0.0055,0 0.007,1.895694 0.0034,4.2126534 l -0.0067,4.2126521 -0.06832,0.170226 c -0.088,0.219251 -0.305825,0.473564 -0.493617,0.576306 l -0.145801,0.07976 -7.229068,0.0068 -7.22906792,0.0068 -0.14173885,-0.06815 z"
   id="path3186"
   inkscape:connector-curvature="0"
   sodipodi:nodetypes="csscccccccccccc" /><path
   style="fill:#00aded;fill-opacity:1;stroke:#00aced;stroke-width:0.02527646;stroke-opacity:1"
   d="M 4.0347744,3.8753429 0.05373178,1.7830016 0.04665122,1.4449936 c -0.0038943,-0.1859045 0.0036617,-0.4155255 0.01679109,-0.51026893 0.04349151,-0.3138405 0.20003232,-0.564236 0.45505332,-0.7278825 0.16570168,-0.1063304 -0.0237186,-0.1391261 1.92134367,-0.149081 1.0752301,-0.0055 2.8027317,-0.00403 5.6030706,-0.00413 6.5825321,-2.516e-4 7.1650221,0.00306 7.2796211,0.041434 0.298805,0.1000474 0.572807,0.3731246 0.653743,0.6515347 0.02933,0.1008905 0.03954,0.2528025 0.03954,0.58816163 l 0,0.4521389 -3.977658,2.0905744 C 9.8504476,5.0272876 8.0504476,5.9679647 8.0381592,5.9678651 8.0258711,5.9677658 6.2243479,5.0261307 4.0347744,3.8753429 z"
   id="path3188"
   inkscape:connector-curvature="0"
   sodipodi:nodetypes="scssssscsscscs" />
</svg>